<svg width="283" height="268" viewBox="0 0 283 268" fill="none" xmlns="http://www.w3.org/2000/svg">
<g clip-path="url(#clip0_13_134)">
<path opacity="0.972541" d="M119.04 60.6448C118.678 47.6168 129.579 36.7442 143.389 36.3598C148.668 36.2128 153.607 37.6197 157.716 40.1416C164.356 44.2171 168.826 51.2049 169.05 59.2527C169.413 72.2805 158.512 83.1533 144.702 83.5377C130.892 83.9221 119.403 73.6725 119.04 60.6448Z" stroke="#150B14" stroke-miterlimit="10" stroke-linejoin="round"/>
<path opacity="0.972541" d="M144.602 91.6411L102.777 186.088" stroke="#150B14" stroke-width="4" stroke-miterlimit="10" stroke-linejoin="round"/>
<path opacity="0.972541" d="M144.585 91.028L191.599 183.002" stroke="#150B14" stroke-width="4" stroke-miterlimit="10" stroke-linejoin="round"/>
<path opacity="0.972541" d="M101.911 186.113L192.699 183.585" stroke="#150B14" stroke-width="4" stroke-miterlimit="10" stroke-linejoin="round"/>
<path opacity="0.972541" d="M135.755 185.138L133.401 210.322" stroke="#150B14" stroke-width="4" stroke-miterlimit="10" stroke-linejoin="round"/>
<path opacity="0.972541" d="M116.156 210.184L134.474 209.674" stroke="#150B14" stroke-width="4" stroke-miterlimit="10" stroke-linejoin="round"/>
<path opacity="0.972541" d="M156.696 184.761L159.064 200.552L160.448 209.775" stroke="#150B14" stroke-width="4" stroke-miterlimit="10" stroke-linejoin="round"/>
<path opacity="0.972541" d="M177.658 208.678L159.34 209.188" stroke="#150B14" stroke-width="4" stroke-miterlimit="10" stroke-linejoin="round"/>
<path opacity="0.972541" d="M144.797 84.0044L145.084 94.2906" stroke="#150B14" stroke-width="4" stroke-miterlimit="10" stroke-linejoin="round"/>
<path opacity="0.972541" d="M148.409 98.7274L199.222 144.46" stroke="#150B14" stroke-width="4" stroke-miterlimit="10" stroke-linejoin="round"/>
<path opacity="0.972541" d="M141.815 97.0579L99.368 155.887" stroke="#150B14" stroke-width="4" stroke-miterlimit="10" stroke-linejoin="round"/>
<mask id="mask0_13_134" style="mask-type:luminance" maskUnits="userSpaceOnUse" x="0" y="0" width="283" height="268">
<path d="M275.055 -4.27498e-05L0 7.65613L7.22261 267.135L282.277 259.479L275.055 -4.27498e-05Z" fill="white"/>
</mask>
<g mask="url(#mask0_13_134)">
<g opacity="0.972541">
<path d="M134.966 26.9902C121.241 27.5607 109.968 41.5884 105.098 52.4618C102.235 58.8548 99.0304 69.2077 103.781 75.3677C106.131 78.4163 110.705 78.7838 112.573 82.2052C113.939 84.7064 111.423 87.0823 110.975 89.4057C110.688 90.8944 111.42 92.4394 112.114 93.8004C113.708 96.9269 117.532 98.3857 119.971 100.738C121.31 102.029 122.212 103.696 122.915 105.377C124.438 109.019 124.897 113.415 124.42 117.286C124.099 119.891 123.195 122.408 123.463 125.059C123.713 127.539 125.076 129.437 126.456 131.468C126.422 131.519 126.611 131.772 126.94 131.971C127.269 132.169 127.617 132.297 127.651 132.246C126.292 130.248 124.984 128.35 124.738 125.909C124.471 123.263 125.374 120.735 125.694 118.136C126.174 114.248 125.721 109.809 124.188 106.153C123.43 104.345 122.367 102.539 120.921 101.154C117.863 98.2258 113.299 96.6198 112.225 92.1743C111.462 89.0184 115.6 86.0619 113.844 82.9078C112.677 80.8127 110.979 79.7479 108.874 78.5458C107.581 77.8073 105.879 77.2118 104.971 75.9987C100.792 70.4164 102.874 62.0808 105.201 56.1473C109.017 46.4157 115.707 36.7193 125.309 31.2428C127.846 29.7959 130.654 28.6134 133.59 28.1351C137.612 27.4799 142.119 27.8299 145.679 29.7906C148.945 31.5892 149.938 33.765 146.637 36.1081C146.595 36.1605 146.784 36.4433 147.122 36.6848C147.461 36.9265 147.794 37.0861 147.836 37.0339C151.187 34.655 150.148 32.5347 147.024 30.3433C143.508 27.8767 139.346 26.8081 134.966 26.9902Z" fill="#150B14"/>
</g>
<g opacity="0.972541">
<path d="M155.448 35.199C153.316 35.0199 151.236 35.2594 149.37 35.9584C149.328 36.0101 149.596 36.2158 149.931 36.4593C150.266 36.7026 150.524 36.862 150.567 36.8104C157.317 34.2806 166.893 37.718 169.235 44.4796C169.867 46.3038 169.123 48.0257 169.073 49.8694C169.03 51.4381 169.611 52.6361 170.438 53.9627C173.17 58.3496 177.193 61.8915 177.145 67.3502C177.104 71.9665 173.184 75.2 173.669 80.1358C173.953 83.0361 177.346 85.1053 177.803 88.2096C178.307 91.6248 176.493 95.0006 175.658 98.2285C174.856 101.328 176.214 104.496 175.372 107.606C174.363 111.33 170.135 114.972 167.841 117.996C167.799 118.048 167.983 118.26 168.324 118.499C168.665 118.738 168.996 118.9 169.038 118.848C171.336 115.817 175.636 112.187 176.647 108.455C177.489 105.344 176.053 102.18 176.855 99.0805C177.693 95.8433 179.508 92.4863 179 89.0616C178.54 85.954 175.221 83.7869 174.942 80.912C174.462 75.9872 178.379 72.8147 178.419 68.2C178.477 61.7748 173.369 58.807 170.894 53.5073C169.617 50.7726 171.379 47.9988 170.43 45.2577C168.556 39.8469 161.844 35.7363 155.448 35.199Z" fill="#150B14"/>
</g>
<g opacity="0.972541">
<path d="M145.95 36.7174C141.755 38.7629 136.327 38.663 132.47 41.2978C131.576 41.9086 130.311 42.979 130.048 44.1686C129.552 46.4107 131.474 47.4044 128.863 49.3656C123.89 53.1016 116.171 53.4446 114.065 59.9582C113.426 61.9358 113.354 64.0587 113.22 66.1049C113.179 66.1578 113.438 66.3734 113.781 66.6056C114.124 66.8378 114.454 67.0076 114.495 66.9547C114.629 64.913 114.702 62.7813 115.34 60.808C117.441 54.308 125.175 53.9454 130.138 50.2154C132.771 48.2366 130.747 47.2702 131.244 45.0205C131.505 43.8416 132.864 42.75 133.745 42.1476C137.597 39.5155 142.955 39.6126 147.147 37.5694C147.189 37.5177 146.922 37.3115 146.585 37.0687C146.248 36.826 145.992 36.6657 145.95 36.7174Z" fill="#150B14"/>
</g>
<g opacity="0.972541">
<path d="M164.617 72.4203C164.207 73.0892 163.861 73.7362 163.737 74.5104C163.246 77.5595 167.305 79.1864 167.314 82.2308C167.323 85.2065 163.259 86.4945 163.296 89.5723C163.325 91.9597 166.312 92.5502 167.645 94.0991C167.238 93.7702 167.088 93.2926 166.596 92.9479C165.697 92.3181 164.58 91.5555 164.569 90.3485C164.54 87.2797 168.519 85.9897 168.509 83.0089C168.495 78.6476 162.942 78.0843 165.892 73.2701C165.933 73.2175 165.672 73.0076 165.331 72.7692C164.989 72.5311 164.658 72.3677 164.617 72.4203ZM167.645 94.0991C167.842 94.2584 167.956 94.5045 168.13 94.6758C168.096 94.6031 168.087 94.5261 168.046 94.4567C167.963 94.3159 167.753 94.2254 167.645 94.0991ZM168.13 94.6758C168.287 95.0102 168.373 95.3444 168.471 95.6988C168.976 97.5163 167.022 99.8273 166.519 101.434C165.768 103.838 166.549 105.86 167.642 108.042C167.605 108.094 167.865 108.33 168.203 108.543C168.541 108.756 168.8 108.872 168.837 108.82C167.756 106.662 166.973 104.663 167.716 102.286C168.224 100.663 170.267 98.3842 169.746 96.5486C169.485 95.6277 168.699 95.2374 168.13 94.6758Z" fill="#150B14"/>
</g>
<g opacity="0.972541">
<path d="M118.05 59.8472C117.291 61.9866 116.133 64.1577 116.201 66.4643C116.277 69.021 117.73 71.3226 117.893 73.8684C118.038 76.1285 117 78.4081 118.08 80.5764C119.335 83.0979 122.85 83.3473 124.09 85.7946C125.338 88.2589 121.486 91.831 121.433 94.2787C121.355 97.8347 124.713 98.0533 125.913 100.72C127.022 103.183 126.017 106.042 126.445 108.599C126.703 110.139 127.569 111.485 127.975 112.982C128.344 114.342 128.207 114.334 128.131 115.781C128.091 115.834 128.351 116.124 128.694 116.356C129.038 116.588 129.287 116.686 129.328 116.633C129.404 115.172 129.542 115.138 129.17 113.761C128.765 112.268 127.897 110.913 127.64 109.377C127.21 106.808 128.317 103.968 127.186 101.496C125.987 98.8745 122.634 98.3992 122.708 95.1285C122.763 92.6493 126.592 89.0862 125.285 86.5728C124.463 84.9927 123.215 84.1953 121.674 83.28C120.774 82.745 119.747 82.3232 119.275 81.3548C118.224 79.2043 119.233 76.9595 119.09 74.7204C118.927 72.1753 117.551 69.8689 117.476 67.3141C117.408 65.0152 118.568 62.829 119.325 60.697C119.366 60.6442 119.107 60.4323 118.764 60.1961C118.421 59.9601 118.091 59.7944 118.05 59.8472Z" fill="#150B14"/>
</g>
<g opacity="0.972541">
<path d="M131.707 81.3038C130.988 81.8829 130.901 83.3145 131.004 84.1268C131.265 86.2038 134.113 86.5006 134.411 88.5322C134.382 88.1418 134.409 87.7428 134.378 87.3527C134.376 87.3271 134.3 87.3067 134.298 87.2811C133.863 86.9214 133.26 86.6263 132.86 86.2146C132.062 85.3908 132.159 84.2209 132.464 83.2008C132.555 82.8942 132.663 82.5487 132.908 82.3032C133.022 82.9006 133.017 82.6767 132.984 82.2272C133.071 82.1573 133.22 82.172 133.294 82.1449C133.375 82.2029 133.348 82.2256 133.455 82.288C133.696 82.4284 133.82 82.4768 133.93 82.496C133.922 82.4232 133.932 82.3479 133.924 82.2749C133.914 82.1888 133.525 82.2093 133.371 82.0691C133.311 82.0222 133.3 82.0055 133.21 81.9258C133.133 81.8668 133.063 81.9153 132.974 81.8587C132.91 81.8211 132.8 81.6433 132.813 81.7157C132.831 81.8131 132.799 81.7024 132.815 81.7895C132.345 81.5295 131.991 81.0747 131.707 81.3038ZM133.93 82.496C134.103 84.0804 134.171 85.6923 134.298 87.2811C134.312 87.2932 134.362 87.2668 134.376 87.2789C134.264 85.5898 134.395 87.2772 134.088 82.5655C134.08 82.5777 133.966 82.5025 133.93 82.496ZM134.378 87.3527C134.495 89.1245 134.865 94.0356 134.754 92.4325C134.664 91.1356 134.508 89.8286 134.411 88.5322C134.606 89.8603 133.523 90.9445 133.419 92.2482C133.307 93.6611 135.101 94.691 135.323 96.0314C135.446 96.7744 134.95 97.216 134.591 97.8223C133.989 98.8409 134.276 99.6262 134.747 100.622C134.837 100.811 134.99 101.011 135.076 101.203C135.158 101.384 135.255 101.985 135.249 101.788C135.151 98.6693 135.285 101.779 135.42 102.299C135.381 102.352 135.638 102.576 135.981 102.8C136.323 103.025 136.575 103.13 136.614 103.078C136.524 102.561 136.606 103.047 136.522 102.564C136.553 102.766 136.356 102.168 136.271 101.981C136.184 101.788 136.111 101.589 136.02 101.397C135.873 101.087 135.608 100.716 135.522 100.379C135.391 99.8604 135.749 99.503 135.956 99.1124C136.273 98.516 136.586 97.8975 136.606 97.176C136.639 96.0155 135.68 95.2079 135.118 94.2665C134.951 93.9876 134.756 93.7152 134.702 93.3928C134.655 93.1125 134.817 92.9711 134.84 92.7252C135.029 90.7218 136.932 89.6029 134.378 87.3527Z" fill="#150B14"/>
</g>
<g opacity="0.972541">
<path d="M156.535 79.875C153.948 82.1371 151.737 86.4743 154.145 89.532C155.653 91.447 158.781 92.3229 158.525 95.1643C158.216 98.5842 153.071 101.82 155.68 105.35C156.189 106.039 156.854 106.607 157.529 107.143C157.524 107.166 157.614 107.181 157.765 107.21C157.916 107.24 158.073 107.225 158.078 107.202C153.231 103.42 159.445 100.047 159.8 96.0141C160.066 92.9869 156.806 92.2525 155.26 90.2387C152.956 87.2381 155.302 82.9171 157.81 80.7248C157.852 80.6724 157.588 80.4647 157.249 80.2241C156.909 79.9833 156.577 79.8226 156.535 79.875Z" fill="#150B14"/>
</g>
<g opacity="0.972541">
<path d="M167.734 116.966C168.809 118.177 168.262 117.598 168.785 118.191C168.757 118.17 168.74 118.377 168.713 118.414C169.339 118.958 170.024 119.438 170.557 120.06C171.107 120.7 169.607 119.105 168.865 118.263C169.146 118.467 168.816 118.135 169.009 117.816C169.05 117.763 168.789 117.553 168.448 117.315C168.106 117.077 167.775 116.913 167.734 116.966ZM170.557 120.06C171.086 120.883 171.485 121.821 171.727 122.757C171.767 122.91 171.482 122.972 171.345 123.062C170.655 123.517 170.257 123.318 169.552 123.26C168.934 122.144 168.337 121.269 168.363 119.899C168.366 119.768 168.537 118.657 168.713 118.414C168.305 118.06 167.946 117.662 167.51 117.341C167.238 117.141 167.164 119.417 167.181 119.564C167.315 120.764 167.715 122.055 168.682 122.915C168.924 123.131 169.325 123.183 169.634 123.405C170.201 123.814 170.693 124.335 171.379 124.316C171.601 124.309 173.052 123.855 172.924 123.609C172.271 122.351 172.988 123.63 173.382 123.227C173.424 123.175 173.161 122.966 172.821 122.726C172.481 122.486 172.149 122.325 172.108 122.377C170.555 120.104 170.093 119.337 170.557 120.06Z" fill="#150B14"/>
</g>
<g opacity="0.972541">
<path d="M163.276 114.139C164.514 115.715 163.777 114.832 164.493 115.728C164.459 115.49 164.305 115.35 164.473 114.991C164.514 114.938 164.332 114.725 163.99 114.488C163.647 114.251 163.317 114.086 163.276 114.139ZM164.493 115.728C164.583 116.348 164.86 116.67 163.882 116.262C163.838 116.243 163.919 116.404 163.886 116.409C165.073 117.214 166.251 118.057 167.168 119.121C168.068 120.165 166.039 117.661 164.493 115.728ZM167.168 119.121C168.093 120.389 168.707 121.848 169.084 123.347C169.144 123.584 168.563 123.422 168.305 123.442C167.432 123.509 166.551 123.483 165.718 123.219C163.935 122.653 163.286 120.395 163.405 118.783C163.436 118.368 163.446 118.008 163.529 117.599C163.607 117.21 163.601 116.454 163.886 116.409C163.451 116.114 163.16 115.642 162.686 115.41C162.268 115.205 162.342 116.313 162.254 116.75C162.093 117.543 162.12 118.383 162.244 119.184C162.596 121.483 164.456 123.328 166.759 124.075C167.638 124.361 168.579 124.439 169.504 124.368C169.766 124.348 170.384 124.501 170.283 124.272C169.482 122.454 170.239 124.27 171.061 124.103C171.103 124.052 170.907 123.771 170.575 123.527C170.244 123.282 169.904 123.126 169.862 123.177C167.174 119.076 166.33 117.971 167.168 119.121Z" fill="#150B14"/>
</g>
<g opacity="0.972541">
<path d="M160.113 121.309C160.072 121.354 160.233 121.651 160.52 121.888C160.808 122.126 161.114 122.284 161.156 122.239C162.755 122.201 163.116 122.162 162.718 122.196C162.46 122.218 162.111 122.279 162.024 122.51C161.962 122.674 162.399 122.591 162.574 122.643C163.024 122.776 163.194 122.664 163.586 122.467C163.689 122.415 164.004 122.35 163.895 122.311C163.521 122.178 163.946 122.347 164.359 122.15C164.402 122.098 164.133 121.819 163.796 121.576C163.459 121.333 163.125 121.175 163.082 121.227C161.572 121.275 161.368 121.293 161.598 121.268C161.965 121.229 162.356 121.327 162.698 121.459C162.886 121.532 162.339 121.607 162.157 121.695C161.91 121.815 161.732 121.873 161.456 121.788C161.289 121.738 160.948 121.816 160.983 121.654C161.029 121.44 161.022 121.592 160.113 121.309Z" fill="#150B14"/>
</g>
<g opacity="0.972541">
<path d="M113.275 65.2918C114.644 67.0962 114.958 67.5268 114.655 67.0976C114.633 66.9986 114.61 66.8946 114.647 66.8027C114.688 66.6996 114.622 66.8376 114.55 66.1416C114.59 66.0885 114.332 65.8698 113.989 65.6407C113.645 65.4118 113.315 65.2387 113.275 65.2918ZM114.655 67.0976C114.331 66.6399 113.907 66.2506 113.374 66.0268C113.182 65.9459 113.431 66.4189 113.468 66.6143C113.501 66.7862 113.489 66.9676 113.561 67.128C113.643 67.3101 113.737 67.4978 113.888 67.6355C114.282 67.9965 114.711 68.8548 115.165 68.5588C115.616 68.2647 115.189 68.5667 116.035 68.9036C116.074 68.8626 115.896 68.6289 115.629 68.3986C115.363 68.1681 115.112 68.0041 115.072 68.0451C114.808 67.0723 114.807 66.9831 114.811 67.0932C114.817 67.2687 114.175 68.2113 114.998 68.1947C115.043 68.1937 114.795 68.1064 114.663 67.3925C114.645 67.2959 114.676 67.1968 114.655 67.0976Z" fill="#150B14"/>
</g>
<g opacity="0.972541">
<path d="M109.755 56.8321C110.781 58.8758 110.172 57.7464 110.751 58.8701C110.692 58.5898 110.594 58.1582 110.952 57.6841C110.994 57.6315 110.73 57.3484 110.389 57.1096C110.048 56.8707 109.797 56.7795 109.755 56.8321ZM109.001 57.8121C108.665 57.5197 108.413 58.5017 108.17 58.8682C107.925 59.2374 107.717 59.6105 107.497 59.9934C106.539 61.662 106.35 63.5811 107.255 65.3118C108.245 67.2071 110.209 68.9215 112.377 69.5217C113.232 69.759 114.214 69.7952 115.033 69.4478C115.175 69.3879 115.465 69.3548 115.418 69.2159C115.049 68.1355 115.017 68.101 115.159 68.3378C114.913 68.1827 114.636 68.0173 114.604 68.0582C112.788 62.8592 112.194 61.3646 112.817 62.8701C113.539 64.6163 113.89 66.5145 114.221 68.3639C114.319 68.9122 111.576 68.7279 111.336 68.6654C109.729 68.2467 108.601 66.7132 108.114 65.2879C107.441 63.3156 108.341 61.3831 109.445 59.718C109.597 59.4879 109.734 59.294 109.895 59.0414C109.554 58.6578 109.39 58.1515 109.001 57.8121ZM109.895 59.0414C110.966 60.2444 111.955 61.4878 112.739 62.8723C113.479 64.1796 111.848 61.0699 110.753 58.9436C110.81 59.2114 110.806 59.2321 110.198 58.664C110.077 58.5517 109.99 58.8919 109.895 59.0414Z" fill="#150B14"/>
</g>
<g opacity="0.972541">
<path d="M166.086 102.7C164.573 108.55 164.142 109.786 164.526 108.498C165.065 106.69 165.54 104.847 166.174 103.066C166.232 102.903 166.211 103.417 166.266 103.58C166.329 103.763 166.449 103.982 166.517 104.164C166.676 104.581 166.776 104.916 166.941 105.332C167.411 106.515 168.089 107.779 167.827 109.07C167.586 110.256 166.425 110.501 165.374 110.835C165.363 110.865 165.308 110.881 165.297 110.911C164.886 111.047 164.427 111.131 164.138 111.386C163.816 111.669 163.322 112.776 163.383 112.366C163.581 111.041 163.394 112.38 163.048 114.367C163.007 114.42 163.266 114.634 163.609 114.868C163.952 115.101 164.204 115.272 164.244 115.219C164.857 112.842 164.596 113.915 164.882 112.84C165.036 112.576 165.141 112.407 165.334 112.238C166.394 111.307 168.677 111.638 169.023 109.922C169.328 108.414 168.51 106.904 167.963 105.525C167.832 105.194 167.657 104.769 167.541 104.43C167.487 104.27 167.427 103.759 167.371 103.918C166.739 105.707 167.369 103.894 167.28 103.478C167.319 103.425 167.062 103.203 166.719 102.978C166.376 102.752 166.125 102.647 166.086 102.7Z" fill="#150B14"/>
</g>
</g>
</g>
<defs>
<clipPath id="clip0_13_134">
<rect width="275.161" height="259.579" fill="white" transform="translate(0 7.65613) rotate(-1.59442)"/>
</clipPath>
</defs>
</svg>
