<svg width="283" height="268" viewBox="0 0 283 268" fill="none" xmlns="http://www.w3.org/2000/svg">
<path opacity="0.972541" d="M119.04 60.6448C118.678 47.6168 129.579 36.7442 143.389 36.3598C148.668 36.2128 153.607 37.6197 157.716 40.1416C164.356 44.2171 168.826 51.2049 169.05 59.2527C169.413 72.2805 158.512 83.1533 144.702 83.5377C130.892 83.9221 119.403 73.6725 119.04 60.6448Z" stroke="#150B14" stroke-miterlimit="10" stroke-linejoin="round"/>
<g opacity="0.972541">
<path d="M141.073 35.6728C141.03 35.7229 141.234 36.0047 141.558 36.2495C141.882 36.4945 142.229 36.6484 142.271 36.5986C145.325 36.6364 148.008 37.7746 150.406 39.4706C147.623 37.4515 144.597 35.7173 141.073 35.6728ZM150.725 39.6832C153.081 41.4172 155.092 43.6875 156.762 45.8594C164.404 55.7985 166.478 68.619 167.815 80.5202C168.248 84.3774 168.592 88.2094 168.996 92.0695C168.957 92.1223 169.214 92.3415 169.558 92.5704C169.901 92.799 170.231 92.9721 170.271 92.9193C169.867 89.0589 169.521 85.1536 169.087 81.2962C167.561 67.7014 164.978 52.8366 154.482 42.6032C153.39 41.5389 152.006 40.6402 150.725 39.6832Z" fill="#150B14"/>
</g>
<g opacity="0.972541">
<path d="M169.218 91.6207C169.176 91.671 169.378 91.9524 169.704 92.1974C170.029 92.4423 170.375 92.5965 170.417 92.5465C171.103 92.5272 171.763 92.509 172.449 92.4899C172.491 92.4396 172.289 92.158 171.963 91.9133C171.638 91.6683 171.292 91.5141 171.25 91.5641C170.564 91.583 169.904 91.6018 169.218 91.6207Z" fill="#150B14"/>
</g>
<g opacity="0.972541">
<path d="M147.344 36.2362C147.312 36.2636 147.413 36.4829 147.591 36.6717C147.769 36.8608 147.957 36.9833 147.99 36.9557C160.233 43.4301 166.648 58.6749 169.037 71.0433C170.347 77.8319 170.297 84.6978 171.795 91.4751C171.756 91.5281 172.016 91.8242 172.358 92.0496C172.701 92.2752 173.03 92.3779 173.07 92.3249C171.572 85.5488 171.62 78.6069 170.309 71.8192C167.659 58.0925 160.742 43.3565 147.344 36.2362Z" fill="#150B14"/>
</g>
<g opacity="0.972541">
<path d="M138.977 36.2477C130.072 37.87 125.923 49.205 123.58 56.2259C117.345 74.9141 119.801 94.0595 124.138 112.794C124.099 112.847 124.357 113.07 124.699 113.295C125.042 113.52 125.374 113.697 125.413 113.644C120.791 93.678 118.431 74.3275 125.645 54.5456C127.994 48.1049 132.075 38.5739 140.174 37.0996C140.216 37.0486 139.944 36.8433 139.613 36.5987C139.281 36.3544 139.02 36.1967 138.977 36.2477Z" fill="#150B14"/>
</g>
<g opacity="0.972541">
<path d="M135.568 34.572C134.171 34.5908 132.79 34.7957 131.361 35.1318C122.296 37.2625 117.546 44.7116 114.88 52.7058C109.478 68.9074 107.962 86.7188 113.545 103.056C114.918 107.075 116.997 110.778 118.948 114.562C118.911 114.614 119.172 114.85 119.509 115.062C119.847 115.275 120.106 115.392 120.143 115.34C118.197 111.567 116.108 107.841 114.739 103.834C109.163 87.5144 110.681 69.7413 116.077 53.5577C119.026 44.7136 123.855 37.6348 133.88 35.7257C136.146 35.2939 138.429 35.1446 140.538 36.1306C140.575 36.0953 140.441 35.9106 140.213 35.6967C139.985 35.483 139.771 35.3063 139.734 35.3413C138.382 34.7172 136.964 34.5532 135.568 34.572Z" fill="#150B14"/>
</g>
<g opacity="0.972541">
<path d="M133.431 112.314C126.313 113.524 124.316 113.833 126.269 113.473C128.265 113.104 130.271 112.823 132.261 112.42C132.628 112.346 131.543 112.494 131.169 112.525C130.456 112.583 129.618 112.657 128.907 112.735C126.843 112.962 124.914 113.554 122.923 114.082C122.508 114.192 122.101 114.32 121.681 114.412C121.265 114.502 120.017 114.673 120.435 114.594C122.385 114.224 120.451 114.597 119.187 114.703C119.144 114.753 119.344 115.034 119.672 115.279C120 115.524 120.343 115.679 120.385 115.628C123.666 115.071 122.439 115.305 123.655 115.095C123.815 115.053 123.96 114.976 124.12 114.934C126.106 114.407 128.045 113.814 130.104 113.587C130.814 113.509 131.654 113.435 132.366 113.377C132.74 113.346 133.827 113.272 133.46 113.346C131.47 113.749 133.504 113.294 134.628 113.166C134.67 113.115 134.395 112.91 134.066 112.665C133.738 112.421 133.473 112.264 133.431 112.314Z" fill="#150B14"/>
</g>
<g opacity="0.972541">
<path d="M167.412 110.999C160.989 111.564 159.135 111.623 160.936 111.548C162.37 111.489 163.8 111.407 165.234 111.429C165.956 111.44 163.849 111.542 163.126 111.561C162.402 111.581 161.661 111.564 160.936 111.548C159.85 111.525 158.739 111.5 157.652 111.566C157.297 111.588 156.991 111.625 156.639 111.668C156.288 111.711 155.196 111.856 155.549 111.846C157.351 111.792 155.56 111.83 154.539 112.095C154.497 112.147 154.767 112.352 155.1 112.596C155.434 112.84 155.693 112.999 155.736 112.947C161.844 112.411 162.912 112.365 161.82 112.409C160.123 112.489 158.444 112.647 156.746 112.698C156.396 112.709 157.488 112.563 157.835 112.52C158.185 112.477 158.497 112.44 158.849 112.418C159.845 112.357 160.824 112.387 161.82 112.409C162.633 112.427 163.432 112.438 164.245 112.416C164.972 112.395 167.158 112.293 166.431 112.281C165 112.256 166.481 112.314 168.609 111.851C168.651 111.8 168.379 111.595 168.047 111.351C167.715 111.107 167.454 110.948 167.412 110.999Z" fill="#150B14"/>
</g>
<g opacity="0.972541">
<path d="M149.839 30.3386C147.786 30.2678 145.911 30.7914 144.005 31.4599C141.702 32.2684 140.118 33.2768 138.792 35.22C138.751 35.2726 139.014 35.5559 139.356 35.7945C139.697 36.0331 140.026 36.1224 140.067 36.0698C141.387 34.1348 142.91 33.1906 145.204 32.3857C146.753 31.8421 148.282 31.3125 149.942 31.221C158.619 30.742 164.11 40.0575 167.329 46.2293C170.277 51.8805 172.055 57.8164 173.298 63.9898C174.003 67.4943 174.723 70.8444 174.839 74.4228C175.031 80.3264 173.341 86.4131 172.755 92.26C172.134 98.4631 172.427 106.416 167.811 111.283C167.769 111.336 167.954 111.547 168.294 111.786C168.634 112.026 168.966 112.188 169.007 112.135C173.632 107.258 173.407 99.3247 174.03 93.1097C174.616 87.2598 176.228 81.1814 176.036 75.2748C175.919 71.6912 175.279 68.349 174.573 64.8396C173.195 57.9922 171.074 51.44 167.615 45.2622C164.2 39.1624 158.109 30.6235 149.839 30.3386Z" fill="#150B14"/>
</g>
<path opacity="0.972541" d="M144.602 91.6411L102.777 186.088" stroke="#150B14" stroke-width="4" stroke-miterlimit="10" stroke-linejoin="round"/>
<path opacity="0.972541" d="M144.585 91.028L191.599 183.002" stroke="#150B14" stroke-width="4" stroke-miterlimit="10" stroke-linejoin="round"/>
<path opacity="0.972541" d="M101.911 186.113L192.699 183.585" stroke="#150B14" stroke-width="4" stroke-miterlimit="10" stroke-linejoin="round"/>
<path opacity="0.972541" d="M135.755 185.138L133.401 210.322" stroke="#150B14" stroke-width="4" stroke-miterlimit="10" stroke-linejoin="round"/>
<path opacity="0.972541" d="M116.156 210.184L134.474 209.674" stroke="#150B14" stroke-width="4" stroke-miterlimit="10" stroke-linejoin="round"/>
<path opacity="0.972541" d="M156.696 184.761L159.064 200.552L160.448 209.775" stroke="#150B14" stroke-width="4" stroke-miterlimit="10" stroke-linejoin="round"/>
<path opacity="0.972541" d="M177.658 208.678L159.34 209.188" stroke="#150B14" stroke-width="4" stroke-miterlimit="10" stroke-linejoin="round"/>
<path opacity="0.972541" d="M144.798 84.0044L145.084 94.2906" stroke="#150B14" stroke-width="4" stroke-miterlimit="10" stroke-linejoin="round"/>
<path opacity="0.972541" d="M148.409 98.7274L199.222 144.46" stroke="#150B14" stroke-width="4" stroke-miterlimit="10" stroke-linejoin="round"/>
<path opacity="0.972541" d="M141.815 97.0579L99.368 155.887" stroke="#150B14" stroke-width="4" stroke-miterlimit="10" stroke-linejoin="round"/>
</svg>
