<svg width="283" height="268" viewBox="0 0 283 268" fill="none" xmlns="http://www.w3.org/2000/svg">
<path opacity="0.972541" d="M119.04 60.6448C118.678 47.6168 129.579 36.7442 143.389 36.3598C148.668 36.2128 153.607 37.6197 157.716 40.1416C164.356 44.2171 168.826 51.2049 169.05 59.2527C169.413 72.2805 158.512 83.1533 144.702 83.5377C130.892 83.9221 119.403 73.6725 119.04 60.6448Z" stroke="#150B14" stroke-miterlimit="10" stroke-linejoin="round"/>
<path opacity="0.972541" d="M144.602 91.6411L102.777 186.088" stroke="#150B14" stroke-width="4" stroke-miterlimit="10" stroke-linejoin="round"/>
<path opacity="0.972541" d="M144.585 91.028L191.599 183.002" stroke="#150B14" stroke-width="4" stroke-miterlimit="10" stroke-linejoin="round"/>
<path opacity="0.972541" d="M101.911 186.113L192.699 183.585" stroke="#150B14" stroke-width="4" stroke-miterlimit="10" stroke-linejoin="round"/>
<path opacity="0.972541" d="M135.755 185.138L133.401 210.322" stroke="#150B14" stroke-width="4" stroke-miterlimit="10" stroke-linejoin="round"/>
<path opacity="0.972541" d="M116.156 210.184L134.474 209.674" stroke="#150B14" stroke-width="4" stroke-miterlimit="10" stroke-linejoin="round"/>
<path opacity="0.972541" d="M156.696 184.761L159.064 200.552L160.448 209.775" stroke="#150B14" stroke-width="4" stroke-miterlimit="10" stroke-linejoin="round"/>
<path opacity="0.972541" d="M177.658 208.678L159.34 209.188" stroke="#150B14" stroke-width="4" stroke-miterlimit="10" stroke-linejoin="round"/>
<path opacity="0.972541" d="M144.797 84.0044L145.084 94.2906" stroke="#150B14" stroke-width="4" stroke-miterlimit="10" stroke-linejoin="round"/>
<path opacity="0.972541" d="M148.409 98.7274L199.222 144.46" stroke="#150B14" stroke-width="4" stroke-miterlimit="10" stroke-linejoin="round"/>
<path opacity="0.972541" d="M141.815 97.0579L99.368 155.887" stroke="#150B14" stroke-width="4" stroke-miterlimit="10" stroke-linejoin="round"/>
<g opacity="0.972541">
<path d="M131.124 35.0645C129.12 35.3223 127.13 36.0843 125.323 37.3655C124.932 37.6429 124.674 38.2018 124.264 38.6492C122.544 37.9896 120.439 38.7417 118.891 39.4626C115.044 41.2541 111.479 45.176 110.083 48.9292C109.409 50.74 109.838 52.1636 111.144 53.3261C111.124 53.3261 111.066 53.3282 111.066 53.3282C111.094 53.3513 111.117 53.3776 111.146 53.3999C111.03 53.3946 110.889 53.3938 110.833 53.4086C109.101 53.8662 107.429 55.6939 106.556 57.0688C106.058 57.8524 105.731 58.6982 105.61 59.6034C105.284 62.039 106.372 64.44 108.139 66.1725C108.912 66.9312 110.5 67.4125 111.015 68.3793C112.46 71.0909 109.884 74.0687 110.624 76.8005C111.697 80.7617 119.02 79.9327 122.045 79.7286C122.087 79.6781 121.889 79.4702 121.561 79.2255C121.235 78.9808 120.967 78.7501 120.924 78.8006C119.533 78.8946 118.104 79.0599 116.709 79.0655C115.738 79.0694 112.889 78.9265 112.473 78.5932C111.325 77.6761 111.885 75.8726 112.129 74.6929C112.474 73.0275 113.156 70.7644 112.21 69.1576C111.51 67.9684 110.055 67.6036 109.169 66.6601C107.549 64.9361 106.493 62.7978 106.807 60.4553C107.119 58.1215 108.874 56.3179 110.798 54.9589C111.204 54.6719 111.719 54.2182 112.264 54.254C112.304 54.2567 113.226 54.5594 113.284 54.3732C113.35 54.4179 113.266 54.2753 113.202 54.2279C112.922 54.0192 112.616 53.782 112.324 53.5883C112.233 53.5278 112.159 53.557 112.087 53.5212C111.934 53.4452 111.83 53.3306 111.613 53.313C111.613 53.313 111.489 53.3191 111.378 53.3195C111.335 53.2454 111.25 53.181 111.216 53.1029C109.987 50.3446 112.739 46.8839 114.428 44.8984C116.35 42.6405 118.508 40.9159 121.403 39.8353C122.124 39.5664 122.953 39.4319 123.738 39.4013C123.541 39.7104 123.106 39.9357 123.057 40.2319C122.995 40.605 123.398 40.7359 123.624 40.9538C123.666 40.9862 123.744 40.9852 123.783 41.0233C124.007 41.2048 124.003 41.4988 124.27 41.6736C125.025 42.1684 126.049 41.2579 126.195 40.5872C126.303 40.0875 125.978 39.6744 125.535 39.3513C126.107 38.7221 126.724 38.1291 127.443 37.6754C130.753 35.5856 134.638 35.389 138.286 36.7095C138.327 36.6673 138.077 36.4399 137.803 36.2067C137.529 35.9733 137.286 35.811 137.246 35.8532C135.148 35.0965 133.128 34.8068 131.124 35.0645Z" fill="#150B14"/>
</g>
<g opacity="0.972541">
<path d="M154.429 29.4731C152.921 29.4008 151.389 29.7537 150.075 30.4057C149.528 30.6775 149.294 31.2952 148.862 31.7676C148.716 31.6161 148.704 31.3886 148.535 31.2602C145.23 28.7549 137.386 30.6425 138.095 35.4606C138.055 35.5137 138.313 35.7336 138.656 35.9615C139 36.1895 139.33 36.3634 139.37 36.3104C138.893 33.081 142.521 31.2519 145.477 30.9765C146.416 30.8888 147.233 31.3625 148.068 31.3468C148.056 31.4312 148.354 31.8245 148.401 32.0755C148.409 32.1185 148.4 32.1759 148.405 32.2227C148.28 32.4651 147.883 32.5413 147.875 32.8277C147.869 33.0422 148.103 33.1141 148.2 33.2615C148.187 33.2791 148.199 33.3191 148.202 33.3351C148.256 33.3794 148.307 33.4351 148.362 33.4782C148.394 33.4959 148.412 33.5313 148.442 33.5498C148.558 33.6486 148.55 33.8188 148.687 33.9118C148.792 33.9827 148.998 34.0483 149.162 34.12C149.196 34.1344 149.209 34.1817 149.242 34.1914C149.285 34.224 149.358 34.2286 149.401 34.2607C149.444 34.2443 149.461 34.2016 149.477 34.1849C149.767 33.872 149.664 33.2042 149.596 32.8536C150.173 31.8768 151.312 31.2006 152.356 30.8587C153.038 30.6353 153.893 30.4767 154.611 30.4272C155.559 30.3616 157.921 30.5716 158.142 30.8452C159.435 32.4447 159.344 34.0188 160.61 35.2029C160.517 34.9243 160.398 34.6026 160.35 34.3248C160.115 32.9402 159.825 31.8211 158.613 30.906C157.438 30.018 155.936 29.5454 154.429 29.4731ZM160.299 35.2854C160.433 35.4179 160.582 35.5552 160.776 35.5672C160.862 35.5724 160.769 35.448 160.692 35.3482C160.661 35.3422 160.642 35.283 160.612 35.2767C160.564 35.2667 160.502 35.2911 160.455 35.2811C160.39 35.2668 160.253 35.2395 160.299 35.2854ZM160.692 35.3482C161.017 35.6181 160.98 36.0059 161.576 36.2088C162.663 36.5794 163.91 36.1906 165.014 36.1131C166.826 35.986 167.904 36.1156 169.495 36.9473C172.351 38.4405 170.228 44.045 171.561 46.5542C172.303 47.9521 173.806 48.7854 174.785 50.0055C177.385 53.2455 179.525 57.1399 176.652 60.8719C175.906 61.8405 175.448 62.1472 174.521 62.9968C174.479 63.0492 174.745 63.331 175.085 63.5713C175.424 63.8117 175.754 63.899 175.796 63.8466C176.872 62.8594 177.89 61.9364 178.601 60.6701C180.588 57.1325 178.258 53.457 175.976 50.6362C175.02 49.4558 173.149 48.4675 172.667 46.966C172.013 44.9257 172.542 42.9893 172.343 40.9257C172.151 38.9388 170.77 37.3167 169.008 36.297C166.989 35.1287 165.324 35.0311 163.036 35.2829C162.365 35.3568 161.684 35.4766 161.006 35.4131C160.903 35.4034 160.794 35.368 160.692 35.3482Z" fill="#150B14"/>
</g>
<g opacity="0.972541">
<path d="M174.665 62.5502C173.895 67.5702 174.016 66.5128 173.867 67.5889C174.875 69.8052 176.817 71.6659 176.558 74.375C176.438 75.6359 175.759 76.753 174.852 77.6685C174.7 77.8207 174.558 77.9822 174.395 78.1236C174.406 78.7366 174.306 79.3586 174.368 79.9688C174.406 80.3419 174.982 79.5197 175.287 79.2791C175.572 79.0555 175.873 78.7735 176.127 78.5183C177.041 77.5955 177.634 76.4978 177.755 75.227C178.081 71.8019 174.577 69.8846 174.389 66.6891C174.343 65.9022 174.587 65.3215 175.037 64.6793C175.133 64.5423 175.238 64.3626 175.338 64.2281C175.438 64.0934 175.656 63.6869 175.64 63.851C175.376 66.5762 175.591 63.8162 175.862 63.4021C175.903 63.3495 175.642 63.1398 175.301 62.9015C174.959 62.6629 174.707 62.4976 174.665 62.5502ZM174.395 78.1236C174.357 76.0886 174.377 74.028 174.537 71.9966C174.709 69.8136 174.201 73.8172 173.476 78.8133C173.691 78.6463 173.902 78.5752 174.09 78.4272C174.204 78.3381 174.287 78.2182 174.395 78.1236ZM173.476 78.8133C173.343 78.9166 173.106 79.1871 173.091 79.0452C172.821 76.4106 173.117 79.0496 172.014 79.6654C171.972 79.7175 172.24 79.9978 172.577 80.2399C172.914 80.4821 173.168 80.5695 173.21 80.5173C173.475 78.8046 173.294 80.0624 173.476 78.8133ZM173.867 67.5889C173.835 67.5183 173.812 67.4415 173.783 67.3701C173.597 68.625 173.439 69.8818 173.341 71.1447C173.256 72.2365 173.762 68.3473 173.867 67.5889ZM173.783 67.3701C173.998 65.9148 174.225 64.4633 174.365 63.0012C174.381 62.8376 174.163 63.2438 174.063 63.3783C173.962 63.5133 173.857 63.6185 173.76 63.7557C173.303 64.4073 173.067 65.0411 173.115 65.8393C173.149 66.4151 173.572 66.8611 173.783 67.3701Z" fill="#150B14"/>
</g>
<g opacity="0.972541">
<path d="M125.479 42.9678C122.383 43.1985 118.104 45.6146 117.504 48.649C116.939 51.5123 120.267 51.5197 119.828 53.4533C119.214 56.1576 115.071 57.0815 114.613 59.9429C114.333 61.6925 115.907 62.8021 117.294 63.5569C117.795 63.83 118.548 63.9309 118.651 64.552C118.809 65.5051 117.905 66.5938 117.398 67.3163C116.167 69.0718 114.593 71.5332 116.319 73.4696C116.78 73.9875 117.345 74.426 117.92 74.8268C118.787 75.4307 119.683 75.8817 120.622 76.3744C120.656 76.3463 120.56 76.204 120.378 76.0125C120.195 75.8209 120.012 75.7002 119.979 75.7285C116.852 74.0901 115.88 72.8468 117.771 69.4455C118.378 68.3528 120.167 66.8162 119.848 65.4039C119.445 63.6215 116.39 63.5613 116.085 62.2627C115.971 61.776 115.808 61.2862 115.888 60.7927C116.347 57.9397 120.497 57.0098 121.103 54.3031C121.495 52.5505 118.945 52.1193 118.726 50.3855C118.317 47.1422 123.614 44.1206 126.678 43.8936C126.721 43.8431 126.521 43.5616 126.193 43.317C125.865 43.0721 125.522 42.9173 125.479 42.9678Z" fill="#150B14"/>
</g>
<g opacity="0.972541">
<path d="M152.606 37.0487C152.564 37.098 152.769 37.3069 153.09 37.5517C153.409 37.7964 153.682 37.9521 153.725 37.9028C155.828 38.0487 157.912 38.3122 159.931 38.9104C161.181 39.2809 162.579 39.759 163.65 40.5038C164.505 41.0973 165.176 42.0581 165.75 42.8797C169.502 48.2536 162.725 50.9852 162.996 56.3091C163.089 58.1384 165.895 58.9451 167.382 59.3594C167.837 59.4864 168.256 59.6761 168.722 59.7647C168.772 59.7742 168.774 59.6469 168.798 59.6887C168.951 59.9507 169.036 60.2064 169.134 60.491C169.179 60.6226 167.668 62.6231 167.63 62.6721C166.269 64.4381 164.595 66.1841 164.113 68.3767C163.5 71.1719 166.593 70.9956 167.428 72.2684C167.764 72.7808 167.37 73.8189 167.251 74.339C166.92 75.7887 166.739 77.0024 166.975 78.4779C166.936 78.5307 167.118 78.8271 167.461 79.0546C167.804 79.2818 168.133 79.3827 168.172 79.3299C167.967 78.0528 168.114 77.0501 168.386 75.7828C168.549 75.0238 168.948 74.0483 168.785 73.2632C168.582 72.2826 167.215 71.6197 166.381 71.1908C166.198 71.0966 165.574 70.7969 165.351 70.703C165.293 70.5559 165.287 70.3445 165.259 70.1893C165.202 69.8686 165.242 69.5415 165.31 69.2287C165.79 67.0427 167.47 65.2847 168.827 63.5241C168.891 63.4408 170.492 61.4673 170.406 61.2672C168.976 57.9136 164.376 59.2662 164.269 57.0853C164.001 51.652 170.807 49.1216 166.943 43.5842C166.446 42.8728 165.865 42.186 165.244 41.5659C164.512 40.8341 163.682 40.1606 162.766 39.6431C161.547 38.9535 160.242 38.4556 158.89 38.0541C156.837 37.4446 154.746 37.1973 152.606 37.0487Z" fill="#150B14"/>
</g>
</svg>
