<svg width="331" height="332" viewBox="0 0 331 332" fill="none" xmlns="http://www.w3.org/2000/svg">
<path d="M235.583 55.4923C235.896 55.3498 236.23 55.1189 236.583 54.7997C236.944 54.4689 237.274 54.0436 237.574 53.524C237.921 52.9236 238.102 52.3819 238.12 51.8991C238.125 51.4096 237.982 50.95 237.692 50.5204C237.389 50.0841 236.952 49.6546 236.38 49.232C235.808 48.8094 235.112 48.3614 234.292 47.8881L227.797 44.1381L228.497 42.9257L234.75 46.5357C235.674 47.069 236.49 47.6019 237.199 48.1342C237.907 48.6666 238.462 49.2256 238.863 49.8112C239.264 50.3967 239.461 51.0418 239.455 51.7463C239.448 52.4508 239.192 53.2418 238.685 54.1194C238.358 54.6852 238.005 55.1508 237.625 55.5163C237.244 55.8817 236.82 56.1759 236.353 56.3987L235.583 55.4923ZM239.253 46.6961C238.687 46.3694 238.295 45.9277 238.078 45.3711C237.849 44.8078 237.788 44.1799 237.895 43.4874C237.998 42.7767 238.266 42.0461 238.699 41.2955C238.952 40.8568 239.25 40.4206 239.593 39.9872C239.935 39.5538 240.283 39.1923 240.635 38.9028L239.873 38.4628C239.11 38.0228 238.374 37.898 237.664 38.0883C236.954 38.2787 236.368 38.7722 235.908 39.5689C235.628 40.0539 235.444 40.5864 235.355 41.1665C235.262 41.7284 235.242 42.3634 235.295 43.0715L234.204 43.0418C234.139 42.2196 234.172 41.4689 234.303 40.7897C234.422 40.1039 234.651 39.4666 234.991 38.8777C235.631 37.7692 236.455 37.0749 237.464 36.795C238.472 36.515 239.536 36.6984 240.656 37.345L244.831 39.755C244.992 39.8484 245.134 39.8837 245.254 39.8611C245.364 39.8318 245.467 39.7455 245.566 39.602L246.501 40.142C246.439 40.2757 246.387 40.3921 246.346 40.4911C246.304 40.5901 246.264 40.6594 246.226 40.699C246.047 40.981 245.828 41.147 245.568 41.1971C245.309 41.2472 245.077 41.2214 244.874 41.1196L244.206 40.7569C244.492 41.4611 244.593 42.2198 244.508 43.0331C244.412 43.8397 244.171 44.5779 243.784 45.2476C243.451 45.825 243.026 46.2804 242.51 46.6138C241.99 46.929 241.445 47.0994 240.876 47.125C240.302 47.1324 239.761 46.9894 239.253 46.6961ZM243.436 41.0512C243.347 40.8308 243.248 40.6427 243.138 40.4867C243.028 40.3308 242.915 40.2195 242.8 40.1528L241.483 39.3928C241.107 39.6988 240.754 40.042 240.427 40.4226C240.106 40.7916 239.822 41.1897 239.576 41.617C239.089 42.4599 238.863 43.2378 238.898 43.9508C238.933 44.6637 239.239 45.1869 239.816 45.5202C240.151 45.7136 240.519 45.8103 240.919 45.8104C241.308 45.8039 241.697 45.6898 242.086 45.4683C242.464 45.2401 242.783 44.9008 243.043 44.4505C243.37 43.8847 243.564 43.296 243.624 42.6843C243.692 42.0612 243.629 41.5168 243.436 41.0512ZM252.1 30.4439L251.42 31.6217L246.38 28.7117C245.318 28.0983 244.454 27.8076 243.789 27.8393C243.112 27.8644 242.581 28.2119 242.194 28.8816C241.928 29.3435 241.78 29.8662 241.751 30.4499C241.71 31.0269 241.786 31.6019 241.979 32.175C242.166 32.7299 242.465 33.2257 242.875 33.6625L248.4 36.8525L247.72 38.0303L238.696 32.8203L239.316 31.7464L241.36 32.9264C241.061 32.4306 240.863 31.893 240.767 31.3138C240.659 30.7278 240.656 30.1333 240.757 29.5301C240.859 28.9269 241.064 28.3597 241.37 27.8286C241.657 27.332 241.993 26.9639 242.377 26.7242C242.762 26.4844 243.188 26.3606 243.654 26.3528C244.109 26.3383 244.606 26.4248 245.144 26.6125C245.671 26.7934 246.229 27.0539 246.817 27.3939L252.1 30.4439Z" fill="black"/>
<path d="M280.542 105.895L273.442 93.597L281.513 88.937L282.133 90.0109L275.274 93.9709L277.884 98.4915L283.669 95.1515L284.249 96.1561L278.464 99.4961L281.754 105.195L280.542 105.895ZM293.921 98.4011C293.274 98.7745 292.603 98.9999 291.909 99.0774C291.208 99.1434 290.532 99.0794 289.882 98.8855C289.224 98.68 288.617 98.3611 288.059 97.9286C287.513 97.4895 287.053 96.9466 286.68 96.2999C286.193 95.457 285.937 94.5734 285.911 93.649C285.897 92.718 286.111 91.8479 286.552 91.0389C286.987 90.2183 287.637 89.5581 288.503 89.058C289.392 88.5447 290.289 88.3117 291.194 88.3589C292.111 88.3995 292.963 88.662 293.75 89.1463C294.531 89.6191 295.162 90.2712 295.642 91.1026C295.695 91.195 295.749 91.2874 295.802 91.3798C295.849 91.4606 295.879 91.5274 295.895 91.5803L288.17 96.0403C288.601 96.6536 289.113 97.1276 289.707 97.4623C290.305 97.7789 290.933 97.9472 291.592 97.9674C292.255 97.9695 292.875 97.8038 293.452 97.4705C294.041 97.1305 294.509 96.6603 294.855 96.0601C295.213 95.4532 295.356 94.8473 295.284 94.2423L296.466 93.9295C296.528 94.4634 296.468 95.0135 296.287 95.5799C296.106 96.1463 295.812 96.6777 295.406 97.174C295.005 97.6521 294.509 98.0611 293.921 98.4011ZM287.645 95.2116L294.313 91.3616C293.887 90.7301 293.375 90.256 292.776 89.9395C292.19 89.6163 291.568 89.4595 290.911 89.469C290.26 89.4604 289.639 89.626 289.051 89.966C288.462 90.306 288.008 90.7604 287.69 91.329C287.365 91.8862 287.193 92.5088 287.175 93.1968C287.161 93.8667 287.318 94.5383 287.645 95.2116ZM304.606 92.232C303.901 92.6387 303.146 92.8363 302.339 92.825C301.525 92.8022 300.79 92.6103 300.136 92.2494L301.146 93.9988L300.089 94.6088L292.789 81.9648L293.967 81.2848L297.147 86.7927C297.198 85.9474 297.399 85.1767 297.752 84.4805C298.098 83.7728 298.646 83.2022 299.396 82.7689C300.031 82.4022 300.674 82.2084 301.324 82.1873C301.985 82.1595 302.625 82.2675 303.243 82.5112C303.854 82.7433 304.415 83.0889 304.927 83.548C305.432 83.9956 305.854 84.5139 306.194 85.1028C306.561 85.7379 306.794 86.3959 306.895 87.0768C307.007 87.751 306.993 88.4209 306.854 89.0863C306.708 89.7402 306.449 90.3442 306.076 90.8983C305.708 91.4341 305.218 91.8787 304.606 92.232ZM303.729 91.3528C304.214 91.0728 304.607 90.7146 304.91 90.2783C305.212 89.842 305.413 89.364 305.514 88.8442C305.614 88.3245 305.621 87.8043 305.536 87.2838C305.445 86.7516 305.266 86.2546 304.999 85.7928C304.632 85.1577 304.15 84.643 303.553 84.2488C302.961 83.8363 302.326 83.6026 301.647 83.5478C300.974 83.4747 300.314 83.6248 299.667 83.9981C299.205 84.2648 298.832 84.6187 298.548 85.0599C298.276 85.4944 298.083 85.9749 297.972 86.5013C297.865 87.0095 297.83 87.5223 297.867 88.0398L299.487 90.8457C299.713 91.1308 300.004 91.3553 300.361 91.5191C300.71 91.6713 301.086 91.7623 301.488 91.7919C301.902 91.8149 302.303 91.7907 302.693 91.7195C303.083 91.6484 303.428 91.5261 303.729 91.3528Z" fill="black"/>
<path d="M286.952 225.577L287.974 226.167L285.983 241.415L284.702 240.675L285.328 235.909L279.803 232.719L276.007 235.655L274.708 234.905L286.952 225.577ZM285.601 234.797L286.634 227.287L280.613 231.917L285.601 234.797ZM292.011 245.126C291.261 244.692 290.698 244.106 290.325 243.367C289.962 242.634 289.775 241.879 289.762 241.102L286.552 246.662L285.374 245.982L292.714 233.268L293.77 233.878L292.76 235.628C293.445 235.269 294.188 235.089 294.988 235.089C295.795 235.078 296.539 235.269 297.221 235.663C297.844 236.023 298.339 236.485 298.705 237.051C299.078 237.605 299.329 238.211 299.456 238.87C299.584 239.529 299.589 240.201 299.47 240.887C299.369 241.568 299.145 242.209 298.799 242.809C298.312 243.652 297.689 244.331 296.929 244.847C296.188 245.358 295.388 245.651 294.529 245.725C293.67 245.799 292.831 245.599 292.011 245.126ZM292.282 243.896C292.779 244.183 293.28 244.342 293.786 244.372C294.298 244.391 294.793 244.307 295.27 244.121C295.759 243.941 296.202 243.681 296.599 243.34C297.002 242.988 297.337 242.581 297.604 242.119C297.884 241.634 298.064 241.122 298.144 240.583C298.236 240.051 298.222 239.528 298.104 239.013C297.985 238.498 297.781 238.026 297.49 237.596C297.199 237.167 296.817 236.815 296.344 236.542C296.043 236.368 295.698 236.246 295.308 236.175C294.918 236.104 294.51 236.091 294.083 236.137C293.674 236.178 293.295 236.275 292.945 236.427C292.596 236.58 292.311 236.793 292.092 237.066L290.492 239.837C290.43 240.371 290.455 240.901 290.566 241.428C290.685 241.943 290.886 242.421 291.17 242.862C291.473 243.298 291.843 243.643 292.282 243.896ZM307.307 243.079C306.509 242.649 305.689 242.469 304.849 242.538C304.02 242.613 303.274 242.945 302.612 243.532L299.372 249.144L298.194 248.464L303.404 239.44L304.512 240.08L303.262 242.245C303.941 241.79 304.647 241.513 305.382 241.414C306.128 241.321 306.804 241.418 307.408 241.706C307.53 241.761 307.631 241.812 307.712 241.858C307.804 241.912 307.876 241.961 307.927 242.006L307.307 243.079Z" fill="black"/>
<path d="M235.974 290.436L245.985 284.656L235.639 284.695L235.199 283.933L240.395 274.974L230.384 280.754L229.684 279.542L241.982 272.442L242.702 273.689L237.054 283.346L248.262 283.319L248.972 284.549L236.674 291.649L235.974 290.436ZM240.443 292.176C241.009 291.85 241.587 291.731 242.178 291.821C242.78 291.905 243.355 292.166 243.901 292.605C244.465 293.049 244.964 293.646 245.397 294.397C245.65 294.836 245.879 295.312 246.083 295.825C246.287 296.339 246.427 296.82 246.501 297.27L247.263 296.83C248.025 296.39 248.502 295.814 248.692 295.104C248.882 294.394 248.748 293.64 248.288 292.843C248.008 292.358 247.638 291.933 247.18 291.566C246.741 291.204 246.201 290.869 245.561 290.561L246.132 289.631C246.877 289.986 247.51 290.39 248.033 290.843C248.568 291.288 249.005 291.806 249.345 292.395C249.985 293.503 250.174 294.564 249.912 295.577C249.65 296.591 248.96 297.421 247.839 298.067L243.665 300.477C243.504 300.571 243.402 300.675 243.361 300.791C243.332 300.901 243.355 301.034 243.43 301.19L242.495 301.73C242.41 301.61 242.335 301.507 242.27 301.421C242.205 301.336 242.165 301.266 242.15 301.213C241.995 300.918 241.961 300.645 242.047 300.395C242.134 300.145 242.272 299.958 242.462 299.833L243.11 299.435C242.357 299.331 241.649 299.039 240.987 298.559C240.337 298.073 239.818 297.494 239.432 296.825C239.098 296.247 238.916 295.652 238.885 295.039C238.873 294.43 238.998 293.873 239.26 293.367C239.541 292.867 239.935 292.47 240.443 292.176ZM243.24 298.621C243.475 298.655 243.688 298.663 243.878 298.646C244.068 298.628 244.221 298.586 244.336 298.52L245.653 297.76C245.576 297.28 245.455 296.804 245.289 296.33C245.13 295.867 244.927 295.423 244.68 294.995C244.194 294.152 243.633 293.568 242.998 293.242C242.363 292.915 241.757 292.919 241.18 293.252C240.845 293.445 240.577 293.715 240.377 294.062C240.188 294.402 240.092 294.796 240.09 295.244C240.098 295.686 240.232 296.131 240.492 296.582C240.819 297.148 241.232 297.61 241.731 297.968C242.238 298.338 242.74 298.556 243.24 298.621ZM241.087 305.691C241.168 305.859 241.253 306.019 241.339 306.169C241.414 306.325 241.484 306.432 241.547 306.488C241.65 306.613 241.807 306.699 242.019 306.746C242.231 306.793 242.583 306.79 243.076 306.736C243.568 306.683 244.286 306.592 245.228 306.464L251.982 297.322L252.702 298.569L246.8 306.387L256.372 304.926L257.052 306.104L242.713 308.147C242.446 308.193 242.174 308.188 241.896 308.133C241.607 308.085 241.34 307.97 241.096 307.787C240.847 307.623 240.617 307.371 240.405 307.031C240.334 306.934 240.271 306.824 240.215 306.702C240.155 306.598 240.094 306.464 240.03 306.301L241.087 305.691Z" fill="black"/>
<path d="M165.78 298.68C165.58 298.96 165.407 299.327 165.26 299.78C165.113 300.247 165.04 300.78 165.04 301.38C165.04 302.073 165.153 302.633 165.38 303.06C165.62 303.487 165.973 303.813 166.44 304.04C166.92 304.267 167.513 304.42 168.22 304.5C168.927 304.58 169.753 304.62 170.7 304.62H178.2V306.02H170.98C169.913 306.02 168.94 305.967 168.06 305.86C167.18 305.753 166.42 305.547 165.78 305.24C165.14 304.933 164.647 304.473 164.3 303.86C163.953 303.247 163.78 302.433 163.78 301.42C163.78 300.767 163.853 300.187 164 299.68C164.147 299.173 164.367 298.707 164.66 298.28L165.78 298.68ZM168.3 308.931H174.42V310.291H168.54C167.353 310.291 166.467 310.491 165.88 310.891C165.293 311.305 165 311.911 165 312.711C165 313.245 165.113 313.758 165.34 314.251C165.58 314.758 165.913 315.205 166.34 315.591C166.78 315.978 167.287 316.271 167.86 316.471H174.42V317.831H165.64C165.453 317.831 165.313 317.871 165.22 317.951C165.14 318.031 165.093 318.151 165.08 318.311H164C163.987 318.151 163.98 318.025 163.98 317.931C163.967 317.838 163.96 317.751 163.96 317.671C163.987 317.405 164.093 317.171 164.28 316.971C164.467 316.785 164.693 316.685 164.96 316.671L166.36 316.631C165.56 316.178 164.933 315.558 164.48 314.771C164.027 313.998 163.8 313.158 163.8 312.251C163.8 311.158 164.18 310.331 164.94 309.771C165.7 309.211 166.82 308.931 168.3 308.931ZM164 329.666V328.306H169.82C171.047 328.306 171.94 328.126 172.5 327.766C173.073 327.406 173.36 326.84 173.36 326.066C173.36 325.533 173.227 325.006 172.96 324.486C172.707 323.966 172.353 323.506 171.9 323.106C171.46 322.72 170.953 322.44 170.38 322.266H164V320.906H174.42V322.146H172.06C172.567 322.426 173.007 322.793 173.38 323.246C173.767 323.7 174.067 324.213 174.28 324.786C174.493 325.36 174.6 325.953 174.6 326.566C174.6 327.14 174.493 327.626 174.28 328.026C174.067 328.426 173.76 328.746 173.36 328.986C172.973 329.226 172.5 329.4 171.94 329.506C171.393 329.613 170.78 329.666 170.1 329.666H164Z" fill="black"/>
<path d="M179 36.22L164.8 36.22V31.4C164.8 29.8933 165.12 28.64 165.76 27.64C166.387 26.6267 167.24 25.8667 168.32 25.36C169.387 24.8533 170.573 24.6 171.88 24.6C173.32 24.6 174.573 24.88 175.64 25.44C176.707 25.9867 177.533 26.7733 178.12 27.8C178.707 28.8133 179 30.0133 179 31.4V36.22ZM171.88 26C170.747 26 169.74 26.2133 168.86 26.64C167.98 27.0533 167.293 27.66 166.8 28.46C166.293 29.26 166.04 30.24 166.04 31.4V34.82L177.76 34.82V31.4C177.76 30.2267 177.5 29.24 176.98 28.44C176.46 27.64 175.76 27.0333 174.88 26.62C173.987 26.2067 172.987 26 171.88 26ZM179.2 17.7031C179.2 18.4498 179.06 19.1431 178.78 19.7831C178.487 20.4231 178.093 20.9765 177.6 21.4431C177.093 21.9098 176.513 22.2765 175.86 22.5431C175.207 22.7965 174.507 22.9231 173.76 22.9231C172.787 22.9231 171.893 22.7031 171.08 22.2631C170.267 21.8098 169.62 21.1898 169.14 20.4031C168.647 19.6165 168.4 18.7231 168.4 17.7231C168.4 16.6965 168.647 15.8031 169.14 15.0431C169.633 14.2698 170.287 13.6631 171.1 13.2231C171.9 12.7831 172.78 12.5631 173.74 12.5631C173.847 12.5631 173.953 12.5631 174.06 12.5631C174.153 12.5631 174.227 12.5698 174.28 12.5831V21.5031C175.027 21.4365 175.693 21.2298 176.28 20.8831C176.853 20.5231 177.313 20.0631 177.66 19.5031C177.993 18.9298 178.16 18.3098 178.16 17.6431C178.16 16.9631 177.987 16.3231 177.64 15.7231C177.293 15.1098 176.84 14.6831 176.28 14.4431L176.6 13.2631C177.093 13.4765 177.54 13.8031 177.94 14.2431C178.34 14.6831 178.653 15.2031 178.88 15.8031C179.093 16.3898 179.2 17.0231 179.2 17.7031ZM173.3 21.5431V13.8431C172.54 13.8965 171.873 14.1031 171.3 14.4631C170.727 14.8098 170.28 15.2698 169.96 15.8431C169.627 16.4031 169.46 17.0231 169.46 17.7031C169.46 18.3831 169.627 19.0031 169.96 19.5631C170.28 20.1231 170.733 20.5831 171.32 20.9431C171.893 21.2898 172.553 21.4898 173.3 21.5431ZM179.2 5.94484C179.2 6.70484 179.06 7.40484 178.78 8.04484C178.487 8.67151 178.087 9.22484 177.58 9.70484C177.073 10.1715 176.493 10.5382 175.84 10.8048C175.187 11.0582 174.493 11.1848 173.76 11.1848C172.773 11.1848 171.873 10.9648 171.06 10.5248C170.247 10.0848 169.6 9.47151 169.12 8.68484C168.64 7.89818 168.4 6.99151 168.4 5.96484C168.4 4.99151 168.627 4.13151 169.08 3.38484C169.52 2.63818 170.12 2.08484 170.88 1.72484L171.3 3.04484C170.767 3.33818 170.353 3.75151 170.06 4.28484C169.753 4.80484 169.6 5.38484 169.6 6.02484C169.6 6.71818 169.78 7.35151 170.14 7.92484C170.5 8.49818 170.993 8.95818 171.62 9.30484C172.247 9.63818 172.96 9.80484 173.76 9.80484C174.547 9.80484 175.26 9.63151 175.9 9.28484C176.54 8.93818 177.053 8.47818 177.44 7.90484C177.813 7.33151 178 6.69818 178 6.00484C178 5.55151 177.92 5.11818 177.76 4.70484C177.6 4.27818 177.387 3.91151 177.12 3.60484C176.84 3.28484 176.54 3.07151 176.22 2.96484L176.62 1.62484C177.113 1.81151 177.56 2.12484 177.96 2.56484C178.347 2.99151 178.653 3.49818 178.88 4.08484C179.093 4.65818 179.2 5.27818 179.2 5.94484Z" fill="black"/>
<path d="M309.36 171V159.44L304.22 168.42H303.34L298.18 159.44V171H296.78V156.8H298.22L303.76 166.52L309.34 156.8H310.76V171H309.36ZM313.101 168C313.101 167.347 313.288 166.787 313.661 166.32C314.035 165.84 314.548 165.473 315.201 165.22C315.868 164.953 316.635 164.82 317.501 164.82C318.008 164.82 318.535 164.86 319.081 164.94C319.628 165.02 320.115 165.14 320.541 165.3V164.42C320.541 163.54 320.281 162.84 319.761 162.32C319.241 161.8 318.521 161.54 317.601 161.54C317.041 161.54 316.488 161.647 315.941 161.86C315.408 162.06 314.848 162.36 314.261 162.76L313.741 161.8C314.421 161.333 315.088 160.987 315.741 160.76C316.395 160.52 317.061 160.4 317.741 160.4C319.021 160.4 320.035 160.767 320.781 161.5C321.528 162.233 321.901 163.247 321.901 164.54V169.36C321.901 169.547 321.941 169.687 322.021 169.78C322.101 169.86 322.228 169.907 322.401 169.92V171C322.255 171.013 322.128 171.027 322.021 171.04C321.915 171.053 321.835 171.053 321.781 171.04C321.448 171.027 321.195 170.92 321.021 170.72C320.848 170.52 320.755 170.307 320.741 170.08L320.721 169.32C320.255 169.92 319.648 170.387 318.901 170.72C318.155 171.04 317.395 171.2 316.621 171.2C315.955 171.2 315.348 171.06 314.801 170.78C314.268 170.487 313.848 170.1 313.541 169.62C313.248 169.127 313.101 168.587 313.101 168ZM320.081 168.8C320.228 168.613 320.341 168.433 320.421 168.26C320.501 168.087 320.541 167.933 320.541 167.8V166.28C320.088 166.107 319.615 165.973 319.121 165.88C318.641 165.787 318.155 165.74 317.661 165.74C316.688 165.74 315.901 165.933 315.301 166.32C314.701 166.707 314.401 167.233 314.401 167.9C314.401 168.287 314.501 168.653 314.701 169C314.901 169.333 315.195 169.613 315.581 169.84C315.968 170.053 316.421 170.16 316.941 170.16C317.595 170.16 318.201 170.033 318.761 169.78C319.335 169.527 319.775 169.2 320.081 168.8ZM330.04 161.78C329.133 161.807 328.333 162.06 327.64 162.54C326.96 163.02 326.48 163.68 326.2 164.52V171H324.84V160.58H326.12V163.08C326.48 162.347 326.953 161.753 327.54 161.3C328.14 160.847 328.773 160.593 329.44 160.54C329.573 160.527 329.687 160.52 329.78 160.52C329.887 160.52 329.973 160.527 330.04 160.54V161.78Z" fill="black"/>
<path d="M10.08 159.46C9.88 159.233 9.64667 159.033 9.38 158.86C9.11333 158.673 8.81333 158.513 8.48 158.38C8.14667 158.247 7.78667 158.14 7.4 158.06C7.02667 157.98 6.62667 157.94 6.2 157.94C4.96 157.94 4.04667 158.18 3.46 158.66C2.88667 159.127 2.6 159.767 2.6 160.58C2.6 161.14 2.73333 161.58 3 161.9C3.28 162.22 3.71333 162.48 4.3 162.68C4.88667 162.88 5.63333 163.087 6.54 163.3C7.55333 163.513 8.42667 163.767 9.16 164.06C9.89333 164.353 10.46 164.753 10.86 165.26C11.26 165.753 11.46 166.427 11.46 167.28C11.46 167.933 11.3333 168.5 11.08 168.98C10.8267 169.46 10.4733 169.86 10.02 170.18C9.56667 170.5 9.02667 170.74 8.4 170.9C7.77333 171.047 7.08667 171.12 6.34 171.12C5.60667 171.12 4.9 171.047 4.22 170.9C3.55333 170.74 2.92 170.513 2.32 170.22C1.72 169.913 1.16 169.527 0.64 169.06L1.34 167.92C1.59333 168.187 1.89333 168.44 2.24 168.68C2.6 168.907 2.99333 169.113 3.42 169.3C3.86 169.487 4.32667 169.633 4.82 169.74C5.32667 169.833 5.84667 169.88 6.38 169.88C7.51333 169.88 8.39333 169.673 9.02 169.26C9.66 168.847 9.98 168.233 9.98 167.42C9.98 166.833 9.82 166.367 9.5 166.02C9.18 165.66 8.7 165.367 8.06 165.14C7.42 164.913 6.63333 164.693 5.7 164.48C4.71333 164.253 3.88 164 3.2 163.72C2.52 163.44 2.00667 163.073 1.66 162.62C1.32667 162.153 1.16 161.54 1.16 160.78C1.16 159.9 1.37333 159.16 1.8 158.56C2.24 157.947 2.84 157.487 3.6 157.18C4.36 156.86 5.23333 156.7 6.22 156.7C6.84667 156.7 7.42667 156.767 7.96 156.9C8.50667 157.02 9.00667 157.2 9.46 157.44C9.92667 157.68 10.36 157.98 10.76 158.34L10.08 159.46ZM18.1484 171.2C17.4018 171.2 16.7084 171.06 16.0684 170.78C15.4284 170.487 14.8751 170.093 14.4084 169.6C13.9418 169.093 13.5751 168.513 13.3084 167.86C13.0551 167.207 12.9284 166.507 12.9284 165.76C12.9284 164.787 13.1484 163.893 13.5884 163.08C14.0418 162.267 14.6618 161.62 15.4484 161.14C16.2351 160.647 17.1284 160.4 18.1284 160.4C19.1551 160.4 20.0484 160.647 20.8084 161.14C21.5818 161.633 22.1884 162.287 22.6284 163.1C23.0684 163.9 23.2884 164.78 23.2884 165.74C23.2884 165.847 23.2884 165.953 23.2884 166.06C23.2884 166.153 23.2818 166.227 23.2684 166.28H14.3484C14.4151 167.027 14.6218 167.693 14.9684 168.28C15.3284 168.853 15.7884 169.313 16.3484 169.66C16.9218 169.993 17.5418 170.16 18.2084 170.16C18.8884 170.16 19.5284 169.987 20.1284 169.64C20.7418 169.293 21.1684 168.84 21.4084 168.28L22.5884 168.6C22.3751 169.093 22.0484 169.54 21.6084 169.94C21.1684 170.34 20.6484 170.653 20.0484 170.88C19.4618 171.093 18.8284 171.2 18.1484 171.2ZM14.3084 165.3H22.0084C21.9551 164.54 21.7484 163.873 21.3884 163.3C21.0418 162.727 20.5818 162.28 20.0084 161.96C19.4484 161.627 18.8284 161.46 18.1484 161.46C17.4684 161.46 16.8484 161.627 16.2884 161.96C15.7284 162.28 15.2684 162.733 14.9084 163.32C14.5618 163.893 14.3618 164.553 14.3084 165.3ZM30.7067 171.2C29.8401 171.2 29.0601 170.973 28.3667 170.52C27.6867 170.067 27.1467 169.507 26.7467 168.84V175.26H25.3867V160.58H26.6067V162.6C27.0201 161.947 27.5734 161.42 28.2667 161.02C28.9601 160.607 29.7001 160.4 30.4867 160.4C31.2067 160.4 31.8667 160.553 32.4667 160.86C33.0667 161.153 33.5867 161.553 34.0267 162.06C34.4667 162.567 34.8067 163.147 35.0467 163.8C35.3001 164.44 35.4267 165.107 35.4267 165.8C35.4267 166.773 35.2267 167.673 34.8267 168.5C34.4401 169.313 33.8934 169.967 33.1867 170.46C32.4801 170.953 31.6534 171.2 30.7067 171.2ZM30.3267 170C30.9001 170 31.4134 169.887 31.8667 169.66C32.3201 169.42 32.7067 169.1 33.0267 168.7C33.3601 168.3 33.6134 167.853 33.7867 167.36C33.9601 166.853 34.0467 166.333 34.0467 165.8C34.0467 165.24 33.9467 164.707 33.7467 164.2C33.5601 163.693 33.2867 163.247 32.9267 162.86C32.5667 162.473 32.1534 162.167 31.6867 161.94C31.2201 161.713 30.7134 161.6 30.1667 161.6C29.8201 161.6 29.4601 161.667 29.0867 161.8C28.7134 161.933 28.3534 162.127 28.0067 162.38C27.6734 162.62 27.3934 162.893 27.1667 163.2C26.9401 163.507 26.8001 163.833 26.7467 164.18V167.38C26.9601 167.873 27.2467 168.32 27.6067 168.72C27.9667 169.107 28.3801 169.42 28.8467 169.66C29.3267 169.887 29.8201 170 30.3267 170Z" fill="black"/>
<path d="M23.9452 89.6212C23.0792 89.1212 22.394 88.4946 21.8896 87.7415C21.3852 86.9885 21.049 86.1708 20.8809 85.2886C20.7195 84.3948 20.7136 83.4984 20.8632 82.5994C21.0194 81.6889 21.3241 80.841 21.7775 80.0558C22.2508 79.2359 22.8451 78.5399 23.5605 77.9675C24.2825 77.3836 25.07 76.953 25.9229 76.6757C26.7941 76.3934 27.6785 76.2882 28.5762 76.36C29.4806 76.4203 30.3427 76.6871 31.1625 77.1604C32.0285 77.6604 32.7104 78.2927 33.2081 79.0573C33.7058 79.822 34.0296 80.6478 34.1794 81.5349C34.3408 82.4287 34.3468 83.3251 34.1972 84.2241C34.0477 85.1231 33.7496 85.9595 33.3029 86.7331C32.8296 87.5529 32.2319 88.2548 31.5099 88.8387C30.7946 89.411 30.0071 89.8417 29.1475 90.1305C28.2945 90.4079 27.4192 90.5107 26.5215 90.4389C25.6238 90.3671 24.765 90.0945 23.9452 89.6212ZM22.9899 80.7558C22.6032 81.4255 22.3396 82.1355 22.199 82.8857C22.065 83.6243 22.0601 84.3528 22.1843 85.0711C22.3151 85.7779 22.5743 86.4356 22.9619 87.0443C23.3677 87.6481 23.9055 88.1433 24.5752 88.53C25.2796 88.9366 25.9922 89.1556 26.7131 89.187C27.4523 89.2134 28.1581 89.0975 28.8307 88.8392C29.5215 88.576 30.1475 88.1984 30.7087 87.7064C31.2699 87.2144 31.7338 86.6509 32.1005 86.0158C32.4872 85.3461 32.7475 84.6419 32.8814 83.9032C33.0153 83.1645 33.0145 82.4327 32.8788 81.7078C32.7546 80.9894 32.4954 80.3317 32.1012 79.7346C31.7069 79.1375 31.1749 78.6456 30.5052 78.2589C29.8124 77.8589 29.0997 77.6399 28.3673 77.6019C27.6463 77.5706 26.9405 77.6865 26.2497 77.9497C25.5771 78.208 24.9544 78.5798 24.3817 79.0652C23.8205 79.5572 23.3566 80.1207 22.9899 80.7558ZM35.6208 96.4775C34.9626 96.0975 34.4264 95.6263 34.0121 95.0638C33.6161 94.4964 33.3369 93.8734 33.1745 93.1946C33.0237 92.5225 32.9962 91.8368 33.0919 91.1377C33.1992 90.4452 33.4361 89.7814 33.8028 89.1464C34.2961 88.2919 34.9367 87.6225 35.7244 87.1381C36.5121 86.6537 37.3666 86.4004 38.2879 86.378C39.2091 86.3556 40.1143 86.6011 41.0034 87.1145C41.8464 87.6011 42.4778 88.2274 42.8978 88.9934C43.3244 89.7477 43.5036 90.544 43.4354 91.3822L42.0822 91.0859C42.0949 90.4774 41.9436 89.9128 41.6284 89.3921C41.3314 88.8665 40.9057 88.4437 40.3515 88.1237C39.751 87.777 39.1126 87.6162 38.436 87.6413C37.7595 87.6664 37.1145 87.8637 36.5009 88.2331C35.8989 88.6091 35.3979 89.1435 34.9979 89.8364C34.6046 90.5176 34.398 91.2221 34.3782 91.9496C34.3585 92.6772 34.5002 93.3518 34.8034 93.9733C35.1132 94.5833 35.5684 95.0616 36.1688 95.4083C36.5614 95.635 36.9767 95.7824 37.4146 95.8505C37.8641 95.9252 38.2884 95.9238 38.6873 95.8462C39.1044 95.7637 39.4391 95.6106 39.6915 95.3868L40.652 96.4032C40.2437 96.7371 39.749 96.9672 39.1679 97.0937C38.6051 97.2152 38.013 97.2274 37.3916 97.1304C36.7884 97.0285 36.1981 96.8109 35.6208 96.4775ZM45.8924 101.6C45.7801 101.581 45.5991 101.561 45.3494 101.54C45.0998 101.519 44.8164 101.463 44.4993 101.373C44.1822 101.282 43.8619 101.143 43.5386 100.957C43.2038 100.763 42.9229 100.516 42.696 100.216C42.4807 99.9223 42.3597 99.5985 42.3332 99.2444C42.3133 98.8788 42.4134 98.5055 42.6334 98.1245L46.3634 91.6639L45.1163 90.9439L45.6563 90.0086L46.9034 90.7286L48.6634 87.6802L49.8412 88.3602L48.0812 91.4086L50.1596 92.6086L49.6196 93.5439L47.5412 92.3439L44.0012 98.4754C43.8376 98.812 43.8131 99.1212 43.9276 99.4029C44.0536 99.6912 44.2552 99.9153 44.5324 100.075C44.8557 100.262 45.1801 100.38 45.5057 100.429C45.8379 100.467 46.0463 100.48 46.1307 100.467L45.8924 101.6Z" fill="black"/>
<path d="M86.1173 21.444L76.0541 27.254L75.3541 26.0415L87.6517 18.9415L88.2317 19.9461L82.6379 33.9375L92.8743 28.0275L93.5743 29.2399L81.2941 36.3299L80.6441 35.2041L86.1173 21.444ZM84.9074 42.9883C84.534 42.3417 84.3086 41.6712 84.2311 40.977C84.1718 40.2876 84.2391 39.6175 84.433 38.9667C84.6451 38.3207 84.965 37.7281 85.3926 37.1887C85.8317 36.6426 86.3631 36.1896 86.9866 35.8296C87.6332 35.4563 88.297 35.2193 88.9779 35.1187C89.6704 35.0114 90.3469 35.0365 91.0075 35.194C91.6796 35.3448 92.2936 35.6216 92.8494 36.0243C93.4234 36.4319 93.8971 36.959 94.2705 37.6056C94.6438 38.2522 94.8601 38.9202 94.9194 39.6096C94.9902 40.2923 94.9229 40.9624 94.7175 41.6199C94.5236 42.2707 94.2071 42.8692 93.7679 43.4152C93.3403 43.9546 92.8032 44.411 92.1566 44.7843C91.5331 45.1443 90.8751 45.3779 90.1826 45.4852C89.5017 45.5858 88.8251 45.5607 88.153 45.4099C87.4991 45.264 86.8851 44.9872 86.3111 44.5796C85.7553 44.1769 85.2874 43.6465 84.9074 42.9883ZM87.6593 37.0347C86.9895 37.4214 86.4609 37.9191 86.0733 38.5277C85.7039 39.1413 85.5009 39.7897 85.4643 40.4728C85.4392 41.1494 85.5999 41.7878 85.9466 42.3883C86.2933 42.9887 86.7716 43.4439 87.3816 43.7537C87.9916 44.0636 88.6604 44.2086 89.3879 44.1889C90.1271 44.1624 90.8257 43.9592 91.4839 43.5792C92.1536 43.1925 92.679 42.6891 93.0599 42.0689C93.4408 41.4486 93.6496 40.7969 93.6862 40.1137C93.7229 39.4306 93.5679 38.7887 93.2212 38.1883C92.8746 37.5878 92.3905 37.136 91.7689 36.8328C91.1541 36.5412 90.4828 36.4053 89.7552 36.425C89.0392 36.4382 88.3405 36.6414 87.6593 37.0347ZM90.1821 51.7243L97.0961 42.8597L97.8061 44.0894L91.7399 51.7025L101.376 50.2729L102.046 51.4333L90.9121 52.9887L90.1821 51.7243Z" fill="black"/>
<path d="M17.252 244.897L18.2739 244.307L30.4835 253.655L29.2018 254.395L25.3883 251.469L19.8631 254.659L20.5069 259.415L19.2078 260.165L17.252 244.897ZM24.5612 250.677L18.5743 246.027L19.5729 253.557L24.5612 250.677ZM29.5812 249.21L26.5212 243.91L27.699 243.23L30.639 248.322C31.2324 249.35 31.8489 250.018 32.4887 250.326C33.14 250.627 33.812 250.578 34.5048 250.178C34.9667 249.911 35.3546 249.557 35.6685 249.114C35.9873 248.653 36.2074 248.141 36.329 247.578C36.4438 247.003 36.4445 246.418 36.3311 245.821L33.0511 240.14L34.2289 239.46L38.6189 247.064C38.7122 247.226 38.8169 247.327 38.9328 247.368C39.0421 247.397 39.1693 247.377 39.3146 247.309L39.8546 248.244C39.7227 248.336 39.6163 248.405 39.5355 248.451C39.4613 248.51 39.3896 248.559 39.3203 248.599C39.076 248.709 38.8206 248.733 38.5541 248.672C38.2991 248.603 38.0992 248.457 37.9543 248.233L37.2196 247.04C37.227 247.96 37.0034 248.813 36.5488 249.598C36.1058 250.378 35.4917 250.994 34.7065 251.447C33.7596 251.994 32.8537 252.078 31.9887 251.7C31.1237 251.322 30.3212 250.492 29.5812 249.21ZM45.7919 244.978C45.1799 245.331 44.5408 245.531 43.8745 245.577C43.2082 245.623 42.5612 245.542 41.9335 245.335C41.3106 245.109 40.7353 244.78 40.2075 244.345C39.6796 243.911 39.2457 243.4 38.9057 242.811C38.539 242.176 38.2938 241.524 38.1701 240.857C38.0513 240.171 38.05 239.502 38.1662 238.85C38.2939 238.191 38.5418 237.594 38.9098 237.058C39.2712 236.51 39.7637 236.057 40.3872 235.697C41.1609 235.25 41.944 235.06 42.7364 235.126C43.5404 235.185 44.3054 235.39 45.0314 235.741L43.9414 233.853L44.9979 233.243L50.2279 242.301C50.7079 243.133 50.9092 243.948 50.8317 244.747C50.7724 245.551 50.4855 246.294 49.9709 246.976C49.4678 247.651 48.8179 248.219 48.0212 248.679C46.9935 249.272 46.0554 249.568 45.207 249.565C44.3586 249.562 43.5523 249.366 42.7882 248.975L43.1856 247.984C43.8703 248.343 44.587 248.491 45.3359 248.428C46.0964 248.359 46.8114 248.131 47.4812 247.744C48.0701 247.404 48.5437 246.984 48.902 246.485C49.2785 245.99 49.4878 245.446 49.5298 244.852C49.5833 244.252 49.4234 243.628 49.0501 242.981L48.0201 241.197C48.0004 241.963 47.7903 242.693 47.3898 243.386C46.9827 244.067 46.4501 244.598 45.7919 244.978ZM45.551 243.801C45.9089 243.594 46.2129 243.334 46.4629 243.02C46.7244 242.7 46.9337 242.356 47.0909 241.988C47.2413 241.608 47.3323 241.233 47.3637 240.86C47.3951 240.488 47.3539 240.15 47.2401 239.846L45.6301 237.058C45.2036 236.719 44.732 236.475 44.2153 236.327C43.692 236.167 43.1692 236.115 42.6468 236.17C42.1293 236.208 41.6512 236.353 41.2124 236.606C40.7043 236.899 40.3116 237.272 40.0341 237.725C39.7615 238.16 39.59 238.636 39.5195 239.154C39.4539 239.654 39.4727 240.166 39.576 240.692C39.6792 241.217 39.8575 241.699 40.1108 242.138C40.3908 242.623 40.7441 243.035 41.1706 243.374C41.5905 243.701 42.0505 243.951 42.5507 244.124C43.0559 244.279 43.5638 244.332 44.0746 244.284C44.597 244.228 45.0891 244.067 45.551 243.801Z" fill="black"/>
<path d="M88.5831 316.43C88.8963 316.288 89.2297 316.057 89.5834 315.737C89.9438 315.407 90.274 314.981 90.574 314.462C90.9206 313.861 91.1025 313.32 91.1195 312.837C91.125 312.347 90.9823 311.888 90.6915 311.458C90.3892 311.022 89.952 310.592 89.38 310.17C88.808 309.747 88.1121 309.299 87.2923 308.826L80.7971 305.076L81.4971 303.863L87.7498 307.473C88.6735 308.007 89.4898 308.54 90.1986 309.072C90.9073 309.604 91.4622 310.163 91.8631 310.749C92.264 311.334 92.4613 311.98 92.4548 312.684C92.4484 313.389 92.1918 314.18 91.6851 315.057C91.3585 315.623 91.005 316.089 90.6246 316.454C90.2443 316.819 89.8204 317.114 89.353 317.336L88.5831 316.43ZM91.5263 306.292L86.2263 303.232L86.9063 302.054L91.9985 304.994C93.0262 305.588 93.8941 305.858 94.6021 305.805C95.3169 305.74 95.8742 305.361 96.2742 304.669C96.5409 304.207 96.6994 303.706 96.7498 303.165C96.7953 302.606 96.7299 302.053 96.5537 301.504C96.366 300.95 96.0739 300.442 95.6774 299.982L89.9963 296.702L90.6763 295.525L98.28 299.915C98.4416 300.008 98.5829 300.043 98.7037 300.021C98.813 299.991 98.9134 299.911 99.0049 299.779L99.9402 300.319C99.8718 300.464 99.8142 300.577 99.7676 300.658C99.7324 300.745 99.6949 300.824 99.6549 300.893C99.4985 301.111 99.2894 301.259 99.0278 301.339C98.7728 301.408 98.5265 301.381 98.2889 301.259L97.0564 300.594C97.5226 301.386 97.7553 302.237 97.7546 303.145C97.7605 304.041 97.5368 304.882 97.0835 305.667C96.5368 306.614 95.7944 307.14 94.8562 307.245C93.918 307.35 92.8081 307.032 91.5263 306.292ZM88.6238 290.72L89.3038 289.542L99.9039 295.662C100.354 295.922 100.695 296.011 100.927 295.929C101.159 295.848 101.342 295.691 101.475 295.46C101.595 295.253 101.692 295.031 101.766 294.797C101.84 294.562 101.897 294.357 101.937 294.18L103.01 294.522C102.976 294.795 102.894 295.109 102.765 295.466C102.643 295.811 102.515 296.099 102.382 296.33C102.075 296.861 101.672 297.199 101.174 297.342C100.682 297.474 100.165 297.383 99.6223 297.07L88.6238 290.72Z" fill="black"/>
</svg>
